<?xml version="1.0" encoding="UTF-8"?>
<svg width="14px" height="14px" viewBox="0 0 14 14" version="1.1" xmlns="http://www.w3.org/2000/svg" xmlns:xlink="http://www.w3.org/1999/xlink">
    <!-- Generator: Sketch 50.2 (55047) - http://www.bohemiancoding.com/sketch -->
    <title>搜索</title>
    <desc>Created with Sketch.</desc>
    <defs></defs>
    <g id="Page-1" stroke="none" stroke-width="1" fill="none" fill-rule="evenodd">
        <g id="产品中心-产品-分类" transform="translate(-1413.000000, -176.000000)" fill="#FFFFFF" fill-rule="nonzero">
            <g id="搜索" transform="translate(1413.000000, 176.000000)">
                <path d="M13.8473882,13.142381 L9.87648807,9.31552115 C10.8521622,8.32556514 11.4540188,6.9914075 11.4540188,5.51926816 C11.4540188,2.47112688 8.88988054,0 5.72700942,0 C2.56413831,0 0,2.47112688 0,5.51926816 C0,8.56690769 2.56413831,11.0385363 5.72700942,11.0385363 C6.98538959,11.0385363 8.14588995,10.6426543 9.09084651,9.97933858 L13.1101658,13.8528613 C13.3142556,14.0490462 13.6427777,14.0490462 13.8468675,13.8528613 C14.0509573,13.6556729 14.0509573,13.3390676 13.8473882,13.142381 Z M5.72700942,10.1398991 C3.13944244,10.1398991 1.04127444,8.11783996 1.04127444,5.62413425 C1.04127444,3.1299268 3.13944244,1.1083694 5.72700942,1.1083694 C8.31509705,1.1083694 10.4127444,3.13042855 10.4127444,5.62413425 C10.4127444,8.11733821 8.31509705,10.1398991 5.72700942,10.1398991 Z" id="Shape"></path>
            </g>
        </g>
    </g>
</svg>