<?xml version="1.0" encoding="UTF-8"?>
<svg width="14px" height="24px" viewBox="0 0 14 24" version="1.1" xmlns="http://www.w3.org/2000/svg" xmlns:xlink="http://www.w3.org/1999/xlink">
    <!-- Generator: Sketch 50.2 (55047) - http://www.bohemiancoding.com/sketch -->
    <title>Shape</title>
    <desc>Created with Sketch.</desc>
    <defs></defs>
    <g id="Page-1" stroke="none" stroke-width="1" fill="none" fill-rule="evenodd">
        <g id="产品中心-资源下载" transform="translate(-842.000000, -1683.000000)" fill="#9B9B9B" fill-rule="nonzero">
            <path d="M855.775129,1695.58432 C855.778438,1695.58058 855.781145,1695.5765 855.784404,1695.57271 C855.948705,1695.3807 856.019448,1695.14273 855.995433,1694.91124 C855.995382,1694.91096 855.995332,1694.91064 855.995282,1694.91036 C855.982948,1694.79265 855.946298,1694.67669 855.885281,1694.56944 C855.882924,1694.56532 855.879966,1694.56139 855.877509,1694.55731 C855.864173,1694.53472 855.850335,1694.51232 855.834792,1694.49061 C855.82672,1694.47932 855.817194,1694.46867 855.80852,1694.45765 C855.79749,1694.44358 855.787112,1694.42928 855.775079,1694.41567 C855.77192,1694.41206 855.768109,1694.40882 855.76485,1694.40521 C855.74625,1694.38479 855.727097,1694.36461 855.70629,1694.34536 L843.711856,1683.27115 C843.320232,1682.90964 842.685341,1682.90959 842.293718,1683.27115 C841.902094,1683.63272 841.902094,1684.21887 842.293718,1684.58044 L853.579108,1695.00002 L842.293718,1705.41965 C841.902094,1705.78121 841.902094,1706.36737 842.293718,1706.72889 C842.489505,1706.90964 842.746108,1707 843.002762,1707 C843.259415,1707 843.516019,1706.9096 843.711856,1706.72884 L855.70629,1695.65464 C855.716167,1695.64552 855.72469,1695.63566 855.734066,1695.62626 C855.747954,1695.61238 855.762344,1695.59881 855.775129,1695.58432 Z" id="Shape" transform="translate(849.000000, 1695.000000) scale(-1, 1) translate(-849.000000, -1695.000000) "></path>
        </g>
    </g>
</svg>