<?xml version="1.0" encoding="UTF-8"?>
<svg width="14px" height="24px" viewBox="0 0 14 24" version="1.1" xmlns="http://www.w3.org/2000/svg" xmlns:xlink="http://www.w3.org/1999/xlink">
    <!-- Generator: Sketch 50.2 (55047) - http://www.bohemiancoding.com/sketch -->
    <title>下一页</title>
    <desc>Created with Sketch.</desc>
    <defs></defs>
    <g id="Page-1" stroke="none" stroke-width="1" fill="none" fill-rule="evenodd">
        <g id="产品中心-资源下载" transform="translate(-1064.000000, -1683.000000)" fill="#9B9B9B" fill-rule="nonzero">
            <g id="下一页" transform="translate(1064.000000, 1683.000000)">
                <path d="M13.7751286,12.584325 C13.7784377,12.5805756 13.7811451,12.5765021 13.7844041,12.5727065 C13.9487045,12.3807001 14.0194485,12.1427289 13.9954326,11.9112381 C13.9953825,11.9109604 13.9953324,11.9106364 13.9952822,11.9103586 C13.9829484,11.792646 13.9462979,11.6766923 13.8852806,11.5694409 C13.8829242,11.5653212 13.8799661,11.5613866 13.8775093,11.5573132 C13.8641728,11.5347242 13.8503348,11.5123204 13.8347922,11.4906109 C13.8267201,11.4793165 13.817194,11.46867 13.8085202,11.4576533 C13.79749,11.4435814 13.7871115,11.4292782 13.7750785,11.4156693 C13.7719199,11.4120587 13.7681094,11.4088185 13.7648505,11.405208 C13.7462495,11.3847945 13.727097,11.3646126 13.70629,11.3453564 L1.71185574,0.271154567 C1.32023206,-0.0903617125 0.68534144,-0.090407998 0.29371776,0.271154567 C-0.09790592,0.632717132 -0.09790592,1.21887342 0.29371776,1.58043598 L11.5791081,12.0000203 L0.29371776,22.4196508 C-0.09790592,22.7812134 -0.09790592,23.3673697 0.29371776,23.728886 C0.489504533,23.9096441 0.746108062,24 1.00276168,24 C1.25941531,24 1.51601884,23.9095978 1.71185574,23.7288396 L13.70629,12.6546378 C13.716167,12.6455189 13.7246904,12.6356593 13.7340661,12.6262627 C13.7479541,12.6123761 13.7623436,12.5988134 13.7751286,12.584325 Z" id="Shape"></path>
            </g>
        </g>
    </g>
</svg>