<?xml version="1.0" encoding="UTF-8"?>
<svg width="48px" height="18px" viewBox="0 0 48 18" version="1.1" xmlns="http://www.w3.org/2000/svg" xmlns:xlink="http://www.w3.org/1999/xlink">
    <!-- Generator: Sketch 50.2 (55047) - http://www.bohemiancoding.com/sketch -->
    <title>京东商城平台</title>
    <desc>Created with Sketch.</desc>
    <defs></defs>
    <g id="Page-1" stroke="none" stroke-width="1" fill="none" fill-rule="evenodd">
        <g id="产品中心-产品-分类" transform="translate(-1459.000000, -174.000000)" fill="#FFFFFF" fill-rule="nonzero">
            <g id="京东商城平台" transform="translate(1459.000000, 174.000000)">
                <path d="M36.656,4.11665099 L36.656,1.77610536 L27.336,1.77610536 L27.336,4.12417686 L31.296,4.12417686 L31.296,6.3593603 C31.296,6.77328316 31.216,6.97648166 31.064,7.10442145 C30.912,7.23236124 30.68,7.2925682 30.368,7.30009407 L30.368,8 C31.168,7.97742239 31.752,7.81185325 32.128,7.51081844 C32.496,7.20978363 32.688,6.74317968 32.688,6.11853246 L32.688,4.12417686 L36.656,4.11665099 Z M35.312,3.39416745 L28.68,3.39416745 L28.68,2.50611477 L35.312,2.50611477 L35.312,3.39416745 Z M32.696,4.01058929e-16 L31.296,4.01058929e-16 L31.296,0.549388523 L27,0.549388523 L27,1.27939793 L37,1.27939793 L37,0.549388523 L32.696,0.549388523 L32.696,0 Z" id="Shape"></path>
                <path d="M27,9 L27.7748789,9 C29.4342154,7.34821429 29.8647037,5 29.8647037,5 L28.3697354,5 C28.1818859,6.66964286 27.5713753,8.0625 27,9 Z M33.9112933,5 C33.9112933,5 34.3417816,7.34821429 36.0011182,9 L36.775997,9 C36.2046217,8.0625 35.586284,6.66964286 35.4062616,5 L33.9112933,5 Z M38.2161759,9 L38.9910548,9 C40.6503914,7.34821429 41.0808796,5 41.0808796,5 L39.5859113,5 C39.4058889,6.66964286 38.7875512,8.0625 38.2161759,9 Z M45.1352963,5 C45.1352963,5 45.5657846,7.34821429 47.2251211,9 L48,9 C47.4286247,8.0625 46.810287,6.66964286 46.6302646,5 L45.1352963,5 Z" id="Shape"></path>
                <path d="M41.549806,0.742906277 L41.8137128,0.170249355 L40.4553687,0.170249355 L40.1914618,0.742906277 L38.1423027,0.742906277 L38.1423027,1.49355116 L39.8344114,1.49355116 L38.4683053,4.41874463 L42.4036223,4.41874463 L42.4036223,6.71711092 C42.4036223,7.16595013 42.3260026,7.3516767 42.1785252,7.48323302 C42.0310479,7.61478934 41.8059508,7.67669819 41.5109961,7.6844368 L41.5109961,8.40412726 C42.2871928,8.38091144 42.8538163,8.21066208 43.2186287,7.9011178 C43.5756792,7.59157352 43.7619664,7.11177988 43.7619664,6.46947549 L43.7619664,4.41874463 L47.5109961,4.41874463 L47.5109961,3.66809974 L43.7619664,3.66809974 L43.7619664,2.05073087 L42.4113842,2.05073087 L42.4113842,3.66809974 L40.2069858,3.66809974 L41.2082794,1.49355116 L47.8447607,1.49355116 L47.8447607,0.742906277 L41.549806,0.742906277 Z M21.3376455,2.26741187 C19.622251,0.766122098 17.0996119,0.00773860705 13.839586,0.00773860705 L10.0051746,0.00773860705 L10.0051746,18 L13.839586,18 C17.0918499,18 19.622251,17.2416165 21.3376455,15.7403267 C23.0452781,14.2467756 23.9456662,11.9251935 23.9456662,9.00773861 C23.9456662,6.08254514 23.0452781,3.75322442 21.3376455,2.26741187 Z M19.373868,13.8134136 C18.225097,14.8581255 16.4786546,15.3920894 14.1811125,15.3920894 L12.8460543,15.3920894 L12.8460543,2.6311264 L14.1811125,2.6311264 C16.4786546,2.6311264 18.225097,3.16509028 19.373868,4.20206363 C20.4993532,5.22355976 21.0892626,6.87962167 21.0892626,9.00773861 C21.0892626,11.1281169 20.4993532,12.7919175 19.373868,13.8134136 Z M5.04527814,10.8572657 C5.04527814,12.0412726 4.96765847,12.8770421 4.80465718,13.3413586 C4.65717982,13.7824592 4.40103493,14.1461737 4.04398448,14.4247635 C3.61707633,14.749785 3.08926261,14.9974205 2.48382924,15.144454 C1.89391979,15.2914875 1.15653299,15.3766122 0.287192755,15.3843508 L0,15.3843508 L0,17.9922614 L0.287192755,17.9922614 C0.357050453,18 0.403622251,17.9922614 0.42690815,17.9922614 C2.93402329,17.9922614 4.89780078,17.4582975 6.10866753,16.4213242 C7.35058215,15.3533964 7.97930142,13.7437661 7.97930142,11.6233878 L7.97930142,0 L5.04527814,0 L5.04527814,10.8572657 Z M36.4890039,10.6715391 C34.5019405,10.6715391 32.8874515,12.2811694 32.8874515,14.2622528 C32.8874515,16.2433362 34.5019405,17.8607051 36.4890039,17.8607051 C38.4760673,17.8607051 40.0983182,16.2510748 40.0983182,14.2622528 C40.0983182,12.2811694 38.4760673,10.6715391 36.4890039,10.6715391 Z M36.4890039,16.7850387 C35.0996119,16.7850387 33.9663648,15.6552021 33.9663648,14.2699914 C33.9663648,12.8847807 35.0996119,11.7549441 36.4890039,11.7549441 C37.8783959,11.7549441 39.0116429,12.8847807 39.0116429,14.2699914 C39.0116429,15.6552021 37.8783959,16.7850387 36.4890039,16.7850387 Z M24.7451488,15.1908856 C24.3648124,15.1908856 24.0543338,15.5004299 24.0543338,15.8796217 C24.0543338,16.2588134 24.3648124,16.5683577 24.7451488,16.5683577 C25.1254851,16.5683577 25.4359638,16.2588134 25.4359638,15.8796217 C25.4359638,15.5004299 25.1254851,15.1908856 24.7451488,15.1908856 Z M46.8822768,10.8804815 L44.4527814,15.4230439 L42.0232859,10.8804815 L40.8978008,10.8804815 L40.8978008,17.6517627 L41.9611902,17.6517627 L41.9611902,13.0859845 L44.4450194,17.566638 L46.9288486,13.0859845 L46.9288486,17.6595013 L48,17.6595013 L48,10.8882201 L46.8822768,10.8804815 Z" id="Shape"></path>
                <path d="M32.1634981,16.3329741 C31.7148289,16.7252155 31.1292776,16.9515086 30.5285171,16.9515086 C29.1673004,16.9515086 28.0570342,15.8502155 28.0570342,14.5 C28.0570342,13.1497845 29.1673004,12.0484914 30.5285171,12.0484914 C31.1292776,12.0484914 31.7148289,12.2672414 32.1634981,12.6670259 L32.2471483,12.7349138 L33,11.9956897 L32.9087452,11.9127155 C32.2547529,11.3243534 31.4106464,11 30.5285171,11 C28.581749,11 27,12.5689655 27,14.5 C27,16.4310345 28.581749,18 30.5285171,18 C31.4106464,18 32.2547529,17.6756466 32.9087452,17.0872845 L33,17.0043103 L32.2547529,16.2650862 L32.1634981,16.3329741 Z" id="Shape"></path>
            </g>
        </g>
    </g>
</svg>