<?xml version="1.0" encoding="UTF-8"?>
<svg width="20px" height="20px" viewBox="0 0 20 20" version="1.1" xmlns="http://www.w3.org/2000/svg" xmlns:xlink="http://www.w3.org/1999/xlink">
    <!-- Generator: Sketch 50.2 (55047) - http://www.bohemiancoding.com/sketch -->
    <title>语言</title>
    <desc>Created with Sketch.</desc>
    <defs></defs>
    <g id="Page-1" stroke="none" stroke-width="1" fill="none" fill-rule="evenodd">
        <g id="产品中心-产品-分类" transform="translate(-1520.000000, -172.000000)" fill="#FFFFFF" fill-rule="nonzero">
            <g id="语言" transform="translate(1520.000000, 172.000000)">
                <path d="M10.0005565,0 C4.47751342,0 0,4.47427621 0,9.99185697 C0,15.0899835 3.82111115,19.2958519 8.75621588,19.9076537 C9.03442626,19.9663538 9.37346524,20 9.77665254,20 C9.8907721,20 9.99944346,19.9945713 10.1049123,19.9836944 C15.5800736,19.9272204 20,15.4757134 20,9.99183744 C19.9999805,4.47427621 15.5235215,0 10.0005565,0 Z M8.51495182,18.4285502 C4.48839032,17.7254176 1.42911122,14.2161791 1.42911122,9.99185697 C1.42911122,9.38649936 1.49216598,8.79531883 1.61171425,8.225814 C1.9823099,8.62140543 2.85388733,8.6116416 3.06689488,8.02046109 C3.44727388,8.24756783 3.95913254,8.28890791 3.95913254,8.74208641 C3.95913254,10.2385499 4.01238442,11.843763 5.37303173,11.8687194 C5.4110911,11.8687194 6.13054815,12.1404469 6.47392229,13.0294243 C6.59241604,13.3369655 7.06080615,13.0294243 7.57487143,13.0294243 C7.831328,13.0294243 7.57487143,13.4619425 7.57487143,14.3965952 C7.57487143,15.3279281 9.58215719,16.7614344 9.5821572,16.7614344 C9.57344788,17.3776494 9.5984042,17.8764836 9.64948853,18.2742426 C9.19632998,18.2666073 8.814916,18.326401 8.51495182,18.4285502 Z M12.1110459,18.2949029 C12.0665229,18.0774819 11.8719689,17.9579335 11.5166048,18.0513929 C11.8002439,16.846165 11.9371522,16.1712889 12.5284103,15.6594102 C13.3837212,14.9181986 12.6305203,14.0944631 11.9795467,14.1911641 C11.4666336,14.2683375 11.7915736,13.5564955 11.3329473,13.5173816 C10.8753755,13.4782481 10.2787669,12.5686495 9.61912303,12.2556015 C9.2702421,12.089343 8.92792247,11.6449128 8.38886183,11.6253266 C7.91178192,11.6068534 7.21407866,12.0284948 7.21407866,11.7035349 C7.21407866,10.6559147 7.10862937,9.90821998 7.08687556,9.60932953 C7.06838288,9.37021328 6.92934605,9.52895367 7.57489096,9.54414619 C7.92588087,9.55391002 7.75419381,8.838846 8.10196164,8.81166348 C8.44324631,8.78448098 9.25610409,9.13113607 9.46368297,8.99311455 C9.65608885,8.86380236 10.8786562,12.2013341 10.8786562,9.54414619 C10.8786562,9.2289892 10.7156785,8.68012514 10.8786562,8.38232824 C11.5242206,7.20211523 12.1295581,6.24029963 12.0751736,6.10011053 C12.0436755,6.02076963 11.4144167,5.9556058 10.9101543,6.12401238 C10.7395803,6.18159947 10.9645388,6.44787871 10.7199941,6.50441131 C9.8049481,6.71632553 8.99634735,6.25769879 9.27895145,5.82734811 C9.56907368,5.38608146 10.6200516,5.63494203 10.7113043,4.74924525 C10.7645561,4.24281479 10.8090792,3.65485633 10.8384488,3.21907697 C12.0697645,3.41142447 11.9350042,1.62040564 10.1026861,1.42805813 C13.8085842,1.47148766 16.9483562,3.86458346 18.1003116,7.18579012 C18.0427441,7.13251865 17.9742215,7.09996604 17.8960133,7.09229164 C17.3428146,5.70887375 15.998512,6.70974469 16.4538186,7.93026281 C14.0107343,9.80817977 14.6367516,11.1177635 15.438752,11.8686999 C15.8615451,12.2621238 16.2647129,12.8554914 16.5266958,13.2815655 C16.240811,14.1140103 17.577576,13.7803802 18.2372199,12.3686667 C17.3993667,15.2768437 15.0594861,17.5493171 12.1110459,18.2949029 Z M18.3752218,8.67248982 C18.3839506,8.50295064 18.3872117,8.3431948 18.3818026,8.19326139 C18.5081429,8.78445031 18.5718811,9.38729939 18.5719628,9.99183744 C18.5719628,10.0396412 18.5709083,10.0864295 18.5709083,10.1331201 C18.5420834,9.6420554 18.4766731,9.15382445 18.3752218,8.67248982 Z" id="Shape"></path>
            </g>
        </g>
    </g>
</svg>